<?xml version="1.0" standalone="no"?>
<!DOCTYPE svg PUBLIC "-//W3C//DTD SVG 20010904//EN"
 "http://www.w3.org/TR/2001/REC-SVG-20010904/DTD/svg10.dtd">
<svg version="1.0" xmlns="http://www.w3.org/2000/svg"
 width="369.000000pt" height="209.000000pt" viewBox="0 0 369.000000 209.000000"
 preserveAspectRatio="xMidYMid meet">

<g transform="translate(0.000000,209.000000) scale(0.100000,-0.100000)"
fill="#000000" stroke="none">
<path d="M334 1934 c-52 -19 -111 -74 -135 -128 -36 -80 -16 -200 44 -264 52
-56 90 -66 269 -72 l167 -5 30 -29 c25 -24 31 -38 31 -74 0 -35 -6 -49 -29
-73 l-29 -29 -251 0 c-238 0 -251 -1 -251 -19 0 -29 42 -84 80 -104 31 -16 59
-17 240 -15 188 3 208 5 245 25 177 95 178 340 2 428 -47 23 -61 25 -194 25
-164 0 -202 10 -228 60 -23 44 -13 92 26 124 30 26 32 26 217 26 241 1 274 13
306 118 l7 22 -253 -1 c-195 0 -262 -4 -294 -15z"/>
<path d="M1023 1931 c-77 -36 -78 -36 -81 -449 l-3 -364 23 7 c96 29 118 71
118 228 l0 117 136 0 c159 0 190 12 218 80 9 22 16 43 16 45 0 3 -83 5 -185 5
l-185 0 0 175 c0 96 -3 175 -7 175 -5 0 -27 -9 -50 -19z"/>
<path d="M1586 1940 c-15 -5 -37 -17 -48 -27 -47 -42 -48 -51 -48 -432 l0
-360 33 10 c17 5 47 24 65 44 l32 35 0 370 c0 203 -1 370 -2 369 -2 0 -16 -5
-32 -9z"/>
<path d="M1700 1536 l0 -415 32 10 c18 5 46 23 63 39 l30 30 3 305 3 305 184
0 c181 0 184 0 213 -25 52 -44 50 -152 -5 -195 -23 -18 -40 -20 -189 -20
l-163 0 10 -32 c11 -40 53 -84 93 -98 22 -8 62 -52 140 -150 109 -140 145
-170 200 -170 29 0 76 19 76 32 0 4 -47 67 -105 139 -57 73 -102 136 -99 140
3 5 15 9 27 9 66 1 153 75 176 149 14 49 14 154 0 206 -15 53 -91 129 -144
144 -24 7 -139 11 -292 11 l-253 0 0 -414z"/>
<path d="M2564 1938 c-18 -4 -46 -24 -63 -43 l-31 -36 0 -369 0 -369 32 9 c38
11 72 42 87 78 8 18 10 142 9 383 l-3 355 -31 -8z"/>
<path d="M258 534 c-44 -23 -62 -69 -62 -154 0 -120 38 -170 129 -170 60 0 91
19 111 66 20 47 18 54 -13 54 -22 0 -31 -8 -43 -33 -19 -41 -68 -49 -99 -18
-17 17 -21 34 -21 91 0 80 14 118 46 126 37 9 62 -5 74 -41 10 -29 16 -35 41
-35 33 0 36 13 15 65 -25 59 -115 84 -178 49z"/>
<path d="M588 534 c-83 -45 -90 -242 -11 -304 18 -14 41 -20 75 -20 102 0 143
49 143 170 0 87 -19 131 -65 155 -37 19 -107 19 -142 -1z m119 -56 c40 -44 38
-175 -3 -205 -26 -19 -71 -16 -93 6 -39 39 -38 158 0 200 26 28 70 27 96 -1z"/>
<path d="M887 543 c-4 -3 -7 -80 -7 -170 l0 -163 30 0 30 0 0 107 0 108 58
-105 c49 -89 62 -105 85 -108 l27 -3 0 170 0 171 -25 0 c-24 0 -24 -1 -27
-107 l-3 -108 -60 108 c-46 83 -65 107 -81 107 -11 0 -24 -3 -27 -7z"/>
<path d="M1244 531 c-63 -38 -53 -125 19 -159 23 -11 52 -23 65 -26 56 -18 47
-86 -11 -86 -37 0 -57 15 -57 42 0 13 -8 18 -30 18 -26 0 -30 -3 -30 -29 0
-20 9 -37 31 -55 40 -34 123 -37 162 -6 32 25 44 79 27 119 -12 29 -21 35
-102 70 -39 16 -48 24 -48 45 0 44 76 49 87 6 4 -14 14 -20 34 -20 23 0 29 4
29 23 -1 67 -105 101 -176 58z"/>
<path d="M1520 409 l0 -141 29 -29 c25 -24 37 -29 81 -29 102 0 120 32 120
215 l0 125 -30 0 -30 0 0 -123 c0 -95 -4 -128 -16 -145 -20 -28 -69 -30 -84
-3 -5 11 -10 76 -10 145 l0 126 -30 0 -30 0 0 -141z"/>
<path d="M1850 381 l0 -171 100 0 100 0 0 30 0 30 -70 0 -69 0 -3 138 -3 137
-27 3 -28 3 0 -170z"/>
<path d="M2110 520 c0 -28 2 -30 40 -30 l40 0 0 -140 0 -140 30 0 30 0 0 140
0 140 40 0 c38 0 40 2 40 30 l0 30 -110 0 -110 0 0 -30z"/>
<path d="M2450 423 c-22 -71 -47 -147 -55 -170 l-14 -43 29 0 c24 0 30 6 40
35 l12 35 62 0 c63 0 63 0 72 -32 8 -27 15 -34 42 -36 23 -2 31 0 27 10 -2 7
-27 84 -55 171 l-51 157 -34 0 -34 0 -41 -127z m120 -90 c0 -2 -21 -3 -46 -3
-39 0 -46 3 -41 18 2 9 13 45 23 80 l17 63 23 -78 c13 -43 23 -79 24 -80z"/>
<path d="M2740 381 l0 -171 25 0 c24 0 24 1 27 108 l3 107 60 -107 c53 -96 63
-108 88 -108 l27 0 0 170 0 170 -25 0 -25 0 0 -107 c0 -58 -3 -103 -7 -99 -5
4 -33 51 -63 104 -47 82 -60 98 -83 100 l-27 3 0 -170z"/>
<path d="M3119 534 c-40 -26 -59 -75 -59 -154 0 -80 10 -112 46 -145 22 -20
37 -25 80 -25 45 0 59 5 84 27 16 16 33 43 36 61 6 31 5 32 -25 32 -23 0 -31
-4 -31 -18 0 -26 -31 -52 -63 -52 -44 0 -67 41 -67 120 0 77 23 120 66 120 29
0 64 -33 64 -60 0 -16 7 -20 31 -20 31 0 31 1 26 37 -9 56 -45 86 -109 90 -38
3 -61 -1 -79 -13z"/>
<path d="M3370 545 c0 -3 23 -50 50 -105 45 -89 50 -107 50 -165 l0 -65 30 0
30 0 0 65 c0 58 5 76 50 165 28 55 50 102 50 105 0 3 -13 5 -29 5 -26 0 -32
-7 -64 -77 l-36 -78 -36 78 c-33 71 -38 77 -65 77 -17 0 -30 -2 -30 -5z"/>
</g>
</svg>
